<svg width="199" height="54" viewBox="0 0 199 54" fill="none" xmlns="http://www.w3.org/2000/svg">
<g filter="url(#filter0_d_206_64)">
<rect x="110" y="9" width="80" height="36" stroke="#1CB788" stroke-width="2" shape-rendering="crispEdges"/>
</g>
<path d="M129.462 22.797C128.708 22.316 127.941 22.173 127.148 22.173C125.952 22.173 124.912 22.459 124.015 23.304C123.287 23.993 122.624 25.098 122.624 26.697C122.624 27.919 123.001 29.024 124.015 29.973C124.522 30.454 125.51 31.169 127.083 31.169C127.681 31.169 128.591 31.039 129.462 30.519V28.946C128.968 29.414 128.162 29.947 127.122 29.947C125.276 29.947 123.95 28.53 123.95 26.697C123.95 24.786 125.224 23.395 127.109 23.395C127.603 23.395 128.5 23.486 129.462 24.357V22.797ZM131.102 22.329V31H132.428V27.477H133.026C133.663 27.477 134.456 27.386 135.145 26.801C135.86 26.19 135.99 25.41 135.99 24.903C135.99 24.11 135.639 23.278 134.911 22.797C134.287 22.381 133.546 22.329 133.013 22.329H131.102ZM132.428 23.551H133.013C134.521 23.551 134.716 24.409 134.716 24.89C134.716 25.696 134.17 26.255 133.026 26.255H132.428V23.551ZM142.96 31H144.39L140.282 21.822L135.966 31H137.396L138.345 28.907H142.05L142.96 31ZM138.891 27.659L140.23 24.721L141.517 27.659H138.891ZM145.629 28.894H148.749V27.568H145.629V28.894ZM156.858 22.797C156.104 22.316 155.337 22.173 154.544 22.173C153.348 22.173 152.308 22.459 151.411 23.304C150.683 23.993 150.02 25.098 150.02 26.697C150.02 27.919 150.397 29.024 151.411 29.973C151.918 30.454 152.906 31.169 154.479 31.169C155.077 31.169 155.987 31.039 156.858 30.519V28.946C156.364 29.414 155.558 29.947 154.518 29.947C152.672 29.947 151.346 28.53 151.346 26.697C151.346 24.786 152.62 23.395 154.505 23.395C154.999 23.395 155.896 23.486 156.858 24.357V22.797ZM163.282 22.329H158.498V31H163.282V29.752H159.824V27.022H163.178V25.774H159.824V23.577H163.282V22.329ZM169.392 23.577V22.329H164.088V23.577H166.077V31H167.403V23.577H169.392ZM170.559 31H172.886C173.419 31 174.16 30.948 174.784 30.532C175.512 30.051 175.863 29.219 175.863 28.426C175.863 27.633 175.538 26.944 175.044 26.515C174.381 25.93 173.497 25.826 172.873 25.826H171.885V22.329H170.559V31ZM171.885 27.074H172.847C174.251 27.074 174.563 27.815 174.563 28.439C174.563 29.752 173.172 29.752 172.821 29.752H171.885V27.074Z" fill="white"/>
<path d="M17.1109 15.188H12.5804L9.5102 35.9774H8.64904L5.50394 15.188H0L4.56789 39.812H12.3183L17.1109 15.188Z" fill="white"/>
<path d="M34.1045 21.6917C34.1045 17.2932 31.6333 15 26.9531 15H25.8298C21.1496 15 18.6785 17.2932 18.6785 21.6917V33.3083C18.6785 37.7068 21.1871 40 25.8673 40H26.9905C31.5584 40 34.1045 37.8196 34.1045 33.3083V21.6917ZM28.7877 33.3083C28.7877 36.2406 28.0763 36.9173 26.3915 36.9173C24.8938 36.9173 23.9952 36.2406 23.9952 33.3083V21.6917C23.9952 18.7218 24.8938 18.0451 26.3915 18.0451C28.0763 18.0451 28.7877 18.7218 28.7877 21.6917V33.3083Z" fill="white"/>
<path d="M52.5416 21.8797C52.5416 17.782 50.2951 15.188 45.3528 15.188H37.1156V39.812H45.3528C50.37 39.812 52.5416 37.2932 52.5416 33.1203V21.8797ZM47.2249 33.1203C47.2249 36.015 46.5135 36.7669 44.9035 36.7669H42.4323V18.2707H44.9035C46.476 18.2707 47.2249 19.0602 47.2249 21.8797V33.1203Z" fill="white"/>
<path d="M72.1681 39.812L66.14 25.3008L72.1681 15.188H66.8888L61.7218 25.8647V27.6316L66.0276 39.812H72.1681ZM60.8607 15.188H55.5439V39.812H60.8607V15.188Z" fill="white"/>
<path d="M90 39.812L84.6833 15.188H77.0452L72.1777 39.812H76.6707L77.4945 34.3233H83.0733L83.8221 39.812H90ZM82.6614 31.2782H77.9812L79.8907 18.0075H80.7145L82.6614 31.2782Z" fill="white"/>
<defs>
<filter id="filter0_d_206_64" x="101" y="0" width="98" height="54" filterUnits="userSpaceOnUse" color-interpolation-filters="sRGB">
<feFlood flood-opacity="0" result="BackgroundImageFix"/>
<feColorMatrix in="SourceAlpha" type="matrix" values="0 0 0 0 0 0 0 0 0 0 0 0 0 0 0 0 0 0 127 0" result="hardAlpha"/>
<feOffset/>
<feGaussianBlur stdDeviation="4"/>
<feComposite in2="hardAlpha" operator="out"/>
<feColorMatrix type="matrix" values="0 0 0 0 0.109804 0 0 0 0 0.717647 0 0 0 0 0.615686 0 0 0 1 0"/>
<feBlend mode="normal" in2="BackgroundImageFix" result="effect1_dropShadow_206_64"/>
<feBlend mode="normal" in="SourceGraphic" in2="effect1_dropShadow_206_64" result="shape"/>
</filter>
</defs>
</svg>
