<svg width="626" height="705" viewBox="0 0 626 705" fill="none" xmlns="http://www.w3.org/2000/svg">
<g filter="url(#filter0_dd_206_95)">
<path fill-rule="evenodd" clip-rule="evenodd" d="M188.082 444.991C194.987 438.57 205.029 435.502 217.606 435.502H223.461C236.038 435.502 246.08 438.57 252.985 444.991C259.922 451.443 263.288 460.898 263.288 472.791V533.104C263.288 545.294 259.822 554.759 252.848 561.138C245.914 567.48 235.925 570.394 223.657 570.394H217.801C205.224 570.394 195.139 567.326 188.187 560.911C181.2 554.463 177.779 545.008 177.779 533.104V472.791C177.779 460.898 181.145 451.443 188.082 444.991ZM191.55 448.72C185.946 453.931 182.871 461.847 182.871 472.791V533.104C182.871 544.038 185.989 551.954 191.64 557.169C197.327 562.416 205.98 565.302 217.801 565.302H223.657C235.201 565.302 243.754 562.555 249.411 557.381C255.026 552.244 258.196 544.337 258.196 533.104V472.791C258.196 461.847 255.121 453.931 249.517 448.72C243.882 443.479 235.283 440.594 223.461 440.594H217.606C205.784 440.594 197.185 443.479 191.55 448.72ZM75.9844 436.478H109.929L126.325 544.417H126.43L142.435 436.478H171.341L145.362 569.418H100.746L75.9844 436.478ZM82.1122 441.57L104.977 564.326H141.169L165.158 441.57H146.828L130.822 549.508H121.948L105.552 441.57H82.1122ZM277.797 436.478H323.285C336.59 436.478 346.693 439.959 353.467 446.599C360.247 453.245 363.307 462.676 363.307 473.767V532.128C363.307 543.382 360.362 552.829 353.613 559.443C346.872 566.049 336.755 569.418 323.285 569.418H277.797V436.478ZM282.889 441.57V564.326H323.285C335.969 564.326 344.59 561.156 350.049 555.806C355.499 550.465 358.215 542.541 358.215 532.128V473.767C358.215 463.583 355.419 455.642 349.902 450.235C344.38 444.822 335.745 441.57 323.285 441.57H282.889ZM377.77 436.478H410.579V492.631L437.865 436.478H471.47L438.398 491.735L468.789 564.597L494.218 436.478H538.179L567 569.418H529.416L525.512 540.92H500.841L496.547 569.418H433.171L410.579 505.767V569.418H377.77V436.478ZM382.862 441.57V564.326H405.487V441.57H382.862ZM441.051 441.57L415.068 495.043V503.192L436.767 564.326H463.159L432.71 491.324L462.489 441.57H441.051ZM498.398 441.57L474.034 564.326H492.165L496.459 535.828H529.954L533.858 564.326H560.686L534.073 441.57H498.398ZM508.938 451.117H517.635L528.535 525.11H498.247L508.938 451.117ZM513.293 456.581L504.128 520.018H522.638L513.293 456.581ZM213.382 459.089C211.768 461.198 210.587 465.204 210.587 472.791V533.104C210.587 540.589 211.767 544.543 213.375 546.627C214.827 548.508 216.988 549.296 220.534 549.296C224.652 549.296 226.717 548.467 228.015 546.684C229.517 544.621 230.48 540.688 230.48 533.104V472.791C230.48 465.106 229.516 461.121 228.009 459.032C226.71 457.232 224.65 456.404 220.534 456.404C216.99 456.404 214.834 457.191 213.382 459.089ZM209.338 455.995C212.179 452.281 216.269 451.312 220.534 451.312C225.2 451.312 229.387 452.24 232.138 456.052C234.68 459.575 235.571 465.057 235.571 472.791V533.104C235.571 540.745 234.68 546.181 232.132 549.681C229.379 553.461 225.198 554.388 220.534 554.388C216.271 554.388 212.186 553.42 209.344 549.738C206.658 546.259 205.496 540.844 205.496 533.104V472.791C205.496 464.959 206.657 459.498 209.338 455.995ZM305.514 452.483H320.942C325.47 452.483 329.484 453.64 332.152 457.447C334.633 460.987 335.59 466.365 335.59 473.767V532.128C335.59 539.692 334.691 545.132 332.234 548.68C329.571 552.526 325.519 553.607 320.942 553.607H305.514V452.483ZM310.606 457.575V548.516H320.942C324.759 548.516 326.757 547.645 328.047 545.782C329.543 543.621 330.498 539.594 330.498 532.128V473.767C330.498 466.53 329.503 462.539 327.983 460.37C326.65 458.468 324.612 457.575 320.942 457.575H310.606Z" fill="#1CB788"/>
</g>
<g filter="url(#filter1_dd_206_95)">
<path d="M253.663 640.779C252.118 641.529 249.736 642.015 247.353 642.015C240.159 642.015 235.967 637.381 235.967 630.056C235.967 622.245 240.601 617.788 247.573 617.788C250.044 617.788 252.118 618.317 253.531 619.023L254.501 615.89C253.487 615.36 251.104 614.566 247.441 614.566C238.218 614.566 231.907 620.833 231.907 630.188C231.907 639.985 238.174 645.28 246.558 645.28C250.177 645.28 253.045 644.574 254.413 643.868L253.663 640.779Z" fill="#1CB788"/>
<path d="M261.477 644.795H265.317V632.88C266.199 633.101 267.258 633.145 268.406 633.145C272.157 633.145 275.422 632.041 277.496 629.879C278.997 628.335 279.791 626.216 279.791 623.524C279.791 620.877 278.776 618.714 277.187 617.302C275.422 615.714 272.642 614.831 268.847 614.831C265.758 614.831 263.331 615.096 261.477 615.405V644.795ZM265.317 618.185C265.979 618.008 267.258 617.876 268.935 617.876C273.128 617.876 275.952 619.773 275.952 623.745C275.952 627.761 273.128 630.056 268.494 630.056C267.214 630.056 266.155 629.967 265.317 629.747V618.185Z" fill="#1CB788"/>
<path d="M298.822 635.439L301.999 644.795H306.103L295.953 615.052H291.364L281.214 644.795H285.186L288.275 635.439H298.822ZM289.069 632.439L291.981 623.833C292.599 622.024 293.041 620.171 293.482 618.45H293.57C294.011 620.171 294.453 621.936 295.115 623.877L298.071 632.439H289.069Z" fill="#1CB788"/>
<path d="M310.532 631.468V634.292H321.432V631.468H310.532Z" fill="#1CB788"/>
<path d="M348.291 640.779C346.747 641.529 344.364 642.015 341.981 642.015C334.788 642.015 330.595 637.381 330.595 630.056C330.595 622.245 335.229 617.788 342.201 617.788C344.673 617.788 346.747 618.317 348.159 619.023L349.13 615.89C348.115 615.36 345.732 614.566 342.069 614.566C332.846 614.566 326.536 620.833 326.536 630.188C326.536 639.985 332.802 645.28 341.186 645.28C344.805 645.28 347.673 644.574 349.042 643.868L348.291 640.779Z" fill="#1CB788"/>
<path d="M371.463 627.673H359.945V618.273H372.169V615.052H356.062V644.795H372.831V641.573H359.945V630.85H371.463V627.673Z" fill="#1CB788"/>
<path d="M385.896 644.795H389.78V618.317H398.87V615.052H376.85V618.317H385.896V644.795Z" fill="#1CB788"/>
<path d="M404.389 615.052V644.707C405.669 644.883 407.699 645.06 410.391 645.06C414.495 645.06 418.643 644.133 421.07 641.573C422.483 640.073 423.365 637.999 423.365 635.219C423.365 628.643 417.981 625.952 411.891 625.952C410.876 625.952 409.111 626.04 408.229 626.172V615.052H404.389ZM408.229 629.217C409.2 629.129 410.391 629.041 411.362 629.041C415.598 629.041 419.349 630.806 419.349 635.439C419.349 640.029 415.687 642.059 411.406 642.059C410.082 642.059 409.111 642.015 408.229 641.838V629.217Z" fill="#1CB788"/>
</g>
<g filter="url(#filter2_dd_206_95)">
<path fill-rule="evenodd" clip-rule="evenodd" d="M53.3739 333.862L89.493 396.422L126.862 374.847L124.258 370.338L213.187 318.995C233.866 341.882 268.386 348.061 296.179 332.015L523.523 200.758C533.818 194.814 537.346 181.65 531.402 171.355L469.242 63.691C463.298 53.396 450.134 49.8687 439.839 55.8125L212.495 187.07C184.702 203.116 172.794 236.101 182.275 265.454L93.3464 316.797L90.7426 312.287L53.3739 333.862ZM88.2576 321.561L90.8614 326.071L190.581 268.498L189.583 265.81C179.568 238.851 190.15 207.81 215.889 192.949L443.234 61.6921C450.281 57.6231 459.293 60.0378 463.362 67.0856L525.522 174.75C529.591 181.797 527.176 190.809 520.129 194.878L292.785 326.136C267.045 340.996 234.872 334.639 216.533 312.488L214.704 310.279L114.984 367.853L117.588 372.362L91.978 387.148L62.6481 336.347L88.2576 321.561Z" fill="#1CB788"/>
</g>
<g filter="url(#filter3_dd_206_95)">
<path fill-rule="evenodd" clip-rule="evenodd" d="M237.123 249.466C261.272 258.444 291.378 261.088 319.002 247.919C339.4 238.196 362.593 237.905 381.991 241.713C391.668 243.613 400.298 246.514 407.037 249.686C413.908 252.92 418.397 256.241 420.257 258.756L425.715 254.719C422.828 250.815 417.076 246.907 409.928 243.543C402.648 240.117 393.481 237.05 383.299 235.051C362.976 231.062 338.194 231.249 316.08 241.791C290.564 253.955 262.447 251.638 239.488 243.103C228.026 238.841 217.962 233.067 210.28 226.903C202.526 220.68 197.492 214.299 195.622 208.935L189.211 211.171C191.68 218.249 197.814 225.604 206.031 232.198C214.321 238.85 225.031 244.971 237.123 249.466Z" fill="#1CB788"/>
</g>
<g filter="url(#filter4_dd_206_95)">
<path fill-rule="evenodd" clip-rule="evenodd" d="M94.2305 439.047L94.2305 392.876L88.0743 392.876L88.0743 439.047L94.2305 439.047Z" fill="#1CB788"/>
</g>
<defs>
<filter id="filter0_dd_206_95" x="17.0332" y="376.551" width="608.918" height="252.794" filterUnits="userSpaceOnUse" color-interpolation-filters="sRGB">
<feFlood flood-opacity="0" result="BackgroundImageFix"/>
<feColorMatrix in="SourceAlpha" type="matrix" values="0 0 0 0 0 0 0 0 0 0 0 0 0 0 0 0 0 0 127 0" result="hardAlpha"/>
<feOffset/>
<feGaussianBlur stdDeviation="5.89511"/>
<feColorMatrix type="matrix" values="0 0 0 0 0.109804 0 0 0 0 0.717647 0 0 0 0 0.615686 0 0 0 0.7 0"/>
<feBlend mode="normal" in2="BackgroundImageFix" result="effect1_dropShadow_206_95"/>
<feColorMatrix in="SourceAlpha" type="matrix" values="0 0 0 0 0 0 0 0 0 0 0 0 0 0 0 0 0 0 127 0" result="hardAlpha"/>
<feOffset/>
<feGaussianBlur stdDeviation="29.4756"/>
<feColorMatrix type="matrix" values="0 0 0 0 0.109804 0 0 0 0 0.717647 0 0 0 0 0.615686 0 0 0 1 0"/>
<feBlend mode="normal" in2="effect1_dropShadow_206_95" result="effect2_dropShadow_206_95"/>
<feBlend mode="normal" in="SourceGraphic" in2="effect2_dropShadow_206_95" result="shape"/>
</filter>
<filter id="filter1_dd_206_95" x="172.956" y="555.615" width="309.36" height="148.616" filterUnits="userSpaceOnUse" color-interpolation-filters="sRGB">
<feFlood flood-opacity="0" result="BackgroundImageFix"/>
<feColorMatrix in="SourceAlpha" type="matrix" values="0 0 0 0 0 0 0 0 0 0 0 0 0 0 0 0 0 0 127 0" result="hardAlpha"/>
<feOffset/>
<feGaussianBlur stdDeviation="5.89511"/>
<feColorMatrix type="matrix" values="0 0 0 0 0.109804 0 0 0 0 0.717647 0 0 0 0 0.615686 0 0 0 0.7 0"/>
<feBlend mode="normal" in2="BackgroundImageFix" result="effect1_dropShadow_206_95"/>
<feColorMatrix in="SourceAlpha" type="matrix" values="0 0 0 0 0 0 0 0 0 0 0 0 0 0 0 0 0 0 127 0" result="hardAlpha"/>
<feOffset/>
<feGaussianBlur stdDeviation="29.4756"/>
<feColorMatrix type="matrix" values="0 0 0 0 0.109804 0 0 0 0 0.717647 0 0 0 0 0.615686 0 0 0 1 0"/>
<feBlend mode="normal" in2="effect1_dropShadow_206_95" result="effect2_dropShadow_206_95"/>
<feBlend mode="normal" in="SourceGraphic" in2="effect2_dropShadow_206_95" result="shape"/>
</filter>
<filter id="filter2_dd_206_95" x="0.451576" y="0.00272369" width="586.76" height="449.342" filterUnits="userSpaceOnUse" color-interpolation-filters="sRGB">
<feFlood flood-opacity="0" result="BackgroundImageFix"/>
<feColorMatrix in="SourceAlpha" type="matrix" values="0 0 0 0 0 0 0 0 0 0 0 0 0 0 0 0 0 0 127 0" result="hardAlpha"/>
<feOffset/>
<feGaussianBlur stdDeviation="5.29224"/>
<feColorMatrix type="matrix" values="0 0 0 0 0.109804 0 0 0 0 0.717647 0 0 0 0 0.615686 0 0 0 0.7 0"/>
<feBlend mode="normal" in2="BackgroundImageFix" result="effect1_dropShadow_206_95"/>
<feColorMatrix in="SourceAlpha" type="matrix" values="0 0 0 0 0 0 0 0 0 0 0 0 0 0 0 0 0 0 127 0" result="hardAlpha"/>
<feOffset/>
<feGaussianBlur stdDeviation="26.4612"/>
<feColorMatrix type="matrix" values="0 0 0 0 0.109804 0 0 0 0 0.717647 0 0 0 0 0.615686 0 0 0 1 0"/>
<feBlend mode="normal" in2="effect1_dropShadow_206_95" result="effect2_dropShadow_206_95"/>
<feBlend mode="normal" in="SourceGraphic" in2="effect2_dropShadow_206_95" result="shape"/>
</filter>
<filter id="filter3_dd_206_95" x="136.289" y="156.013" width="342.349" height="155.666" filterUnits="userSpaceOnUse" color-interpolation-filters="sRGB">
<feFlood flood-opacity="0" result="BackgroundImageFix"/>
<feColorMatrix in="SourceAlpha" type="matrix" values="0 0 0 0 0 0 0 0 0 0 0 0 0 0 0 0 0 0 127 0" result="hardAlpha"/>
<feOffset/>
<feGaussianBlur stdDeviation="5.29224"/>
<feColorMatrix type="matrix" values="0 0 0 0 0.109804 0 0 0 0 0.717647 0 0 0 0 0.615686 0 0 0 0.7 0"/>
<feBlend mode="normal" in2="BackgroundImageFix" result="effect1_dropShadow_206_95"/>
<feColorMatrix in="SourceAlpha" type="matrix" values="0 0 0 0 0 0 0 0 0 0 0 0 0 0 0 0 0 0 127 0" result="hardAlpha"/>
<feOffset/>
<feGaussianBlur stdDeviation="26.4612"/>
<feColorMatrix type="matrix" values="0 0 0 0 0.109804 0 0 0 0 0.717647 0 0 0 0 0.615686 0 0 0 1 0"/>
<feBlend mode="normal" in2="effect1_dropShadow_206_95" result="effect2_dropShadow_206_95"/>
<feBlend mode="normal" in="SourceGraphic" in2="effect2_dropShadow_206_95" result="shape"/>
</filter>
<filter id="filter4_dd_206_95" x="35.1518" y="339.953" width="112.001" height="152.016" filterUnits="userSpaceOnUse" color-interpolation-filters="sRGB">
<feFlood flood-opacity="0" result="BackgroundImageFix"/>
<feColorMatrix in="SourceAlpha" type="matrix" values="0 0 0 0 0 0 0 0 0 0 0 0 0 0 0 0 0 0 127 0" result="hardAlpha"/>
<feOffset/>
<feGaussianBlur stdDeviation="5.29224"/>
<feColorMatrix type="matrix" values="0 0 0 0 0.109804 0 0 0 0 0.717647 0 0 0 0 0.615686 0 0 0 0.7 0"/>
<feBlend mode="normal" in2="BackgroundImageFix" result="effect1_dropShadow_206_95"/>
<feColorMatrix in="SourceAlpha" type="matrix" values="0 0 0 0 0 0 0 0 0 0 0 0 0 0 0 0 0 0 127 0" result="hardAlpha"/>
<feOffset/>
<feGaussianBlur stdDeviation="26.4612"/>
<feColorMatrix type="matrix" values="0 0 0 0 0.109804 0 0 0 0 0.717647 0 0 0 0 0.615686 0 0 0 1 0"/>
<feBlend mode="normal" in2="effect1_dropShadow_206_95" result="effect2_dropShadow_206_95"/>
<feBlend mode="normal" in="SourceGraphic" in2="effect2_dropShadow_206_95" result="shape"/>
</filter>
</defs>
</svg>
