<svg width="54" height="73" viewBox="0 0 54 73" fill="none" xmlns="http://www.w3.org/2000/svg">
<g filter="url(#filter0_d_64_62)">
<path d="M11.3318 36.3336C12.7862 34.1619 15.5465 30.0048 23.1746 32.8542C30.8027 35.7038 35.0174 34.6312 36.8873 32.8542" stroke="#1CB788" stroke-width="2"/>
</g>
<g filter="url(#filter1_d_64_62)">
<path d="M44.6648 9.55566H9.10924L12.8519 64.0001H40.9221L41.6465 53.4625L42.7934 36.7779L43.7291 23.1668L44.6648 9.55566Z" stroke="#1CB788" stroke-width="2" shape-rendering="crispEdges"/>
</g>
<rect width="13.1111" height="8.77778" transform="matrix(-1 0 0 1 20.1111 19.5557)" fill="#101010" stroke="#616161" stroke-width="2"/>
<rect width="14.1111" height="7.77778" transform="matrix(-1 0 0 1 46.9983 23.0001)" fill="#101010" stroke="#616161" stroke-width="2"/>
<rect width="20.1111" height="7.77778" transform="matrix(-1 0 0 1 47.1096 31.0001)" fill="#101010" stroke="#616161" stroke-width="2"/>
<rect width="20.1111" height="7.77778" transform="matrix(-1 0 0 1 47.1096 39.0001)" fill="#101010" stroke="#616161" stroke-width="2"/>
<rect width="15.1111" height="7.77778" transform="matrix(-1 0 0 1 47.1096 47.0001)" fill="#101010" stroke="#616161" stroke-width="2"/>
<defs>
<filter id="filter0_d_64_62" x="2.50085" y="22.889" width="43.0753" height="22.001" filterUnits="userSpaceOnUse" color-interpolation-filters="sRGB">
<feFlood flood-opacity="0" result="BackgroundImageFix"/>
<feColorMatrix in="SourceAlpha" type="matrix" values="0 0 0 0 0 0 0 0 0 0 0 0 0 0 0 0 0 0 127 0" result="hardAlpha"/>
<feOffset/>
<feGaussianBlur stdDeviation="4"/>
<feComposite in2="hardAlpha" operator="out"/>
<feColorMatrix type="matrix" values="0 0 0 0 0.109804 0 0 0 0 0.717647 0 0 0 0 0.615686 0 0 0 1 0"/>
<feBlend mode="normal" in2="BackgroundImageFix" result="effect1_dropShadow_64_62"/>
<feBlend mode="normal" in="SourceGraphic" in2="effect1_dropShadow_64_62" result="shape"/>
</filter>
<filter id="filter1_d_64_62" x="0.0380859" y="0.555664" width="53.6978" height="72.4445" filterUnits="userSpaceOnUse" color-interpolation-filters="sRGB">
<feFlood flood-opacity="0" result="BackgroundImageFix"/>
<feColorMatrix in="SourceAlpha" type="matrix" values="0 0 0 0 0 0 0 0 0 0 0 0 0 0 0 0 0 0 127 0" result="hardAlpha"/>
<feOffset/>
<feGaussianBlur stdDeviation="4"/>
<feComposite in2="hardAlpha" operator="out"/>
<feColorMatrix type="matrix" values="0 0 0 0 0.109804 0 0 0 0 0.717647 0 0 0 0 0.615686 0 0 0 1 0"/>
<feBlend mode="normal" in2="BackgroundImageFix" result="effect1_dropShadow_64_62"/>
<feBlend mode="normal" in="SourceGraphic" in2="effect1_dropShadow_64_62" result="shape"/>
</filter>
</defs>
</svg>
