<svg width="45" height="82" viewBox="0 0 45 82" fill="none" xmlns="http://www.w3.org/2000/svg">
<path d="M33.461 61.0007C39.7708 57.2542 44 50.3713 44 42.5007C44 31.8184 36.2094 22.9557 26 21.2842C24.8333 21.0453 21.8 20.7109 19 21.2842C8.79056 22.9557 1 31.8184 1 42.5007C1 50.3713 5.22917 57.2542 11.539 61.0007" stroke="#616161"/>
<g filter="url(#filter0_f_64_46)">
<path d="M11.6629 62.2233C12.1467 62.4897 12.7549 62.3134 13.0213 61.8296C13.2876 61.3458 13.1114 60.7377 12.6276 60.4713L11.6629 62.2233ZM15.5106 61.7784C14.9914 61.5902 14.4179 61.8584 14.2296 62.3776C14.0413 62.8968 14.3096 63.4704 14.8288 63.6586L15.5106 61.7784ZM15.1568 63.7747C15.6789 63.9549 16.2482 63.6777 16.4283 63.1557C16.6085 62.6336 16.3313 62.0643 15.8093 61.8841L15.1568 63.7747ZM18.8726 62.6808C18.329 62.5837 17.8095 62.9458 17.7125 63.4895C17.6155 64.0332 17.9775 64.5526 18.5212 64.6497L18.8726 62.6808ZM18.8642 64.7081C19.4093 64.7967 19.9231 64.4266 20.0117 63.8815C20.1003 63.3364 19.7302 62.8226 19.185 62.734L18.8642 64.7081ZM22.3412 62.9999C21.7889 62.9957 21.3378 63.4401 21.3337 63.9923C21.3295 64.5446 21.7738 64.9957 22.3261 64.9999L22.3412 62.9999ZM22.674 64.9999C23.2262 64.9957 23.6705 64.5446 23.6663 63.9923C23.6622 63.4401 23.2111 62.9957 22.6588 62.9999L22.674 64.9999ZM25.815 62.734C25.2698 62.8226 24.8997 63.3364 24.9883 63.8815C25.0769 64.4266 25.5907 64.7967 26.1358 64.7081L25.815 62.734ZM26.4788 64.6497C27.0225 64.5526 27.3846 64.0332 27.2875 63.4895C27.1905 62.9458 26.671 62.5837 26.1274 62.6808L26.4788 64.6497ZM29.1907 61.8841C28.6687 62.0643 28.3915 62.6336 28.5717 63.1557C28.7518 63.6777 29.3211 63.9549 29.8432 63.7747L29.1907 61.8841ZM30.1712 63.6586C30.6904 63.4704 30.9587 62.8968 30.7704 62.3776C30.5821 61.8584 30.0086 61.5902 29.4894 61.7784L30.1712 63.6586ZM32.3724 60.4713C31.8886 60.7377 31.7124 61.3458 31.9788 61.8296C32.2451 62.3134 32.8533 62.4897 33.3371 62.2233L32.3724 60.4713ZM11.5109 62.1388C11.5615 62.1672 11.6121 62.1953 11.6629 62.2233L12.6276 60.4713C12.5813 60.4458 12.5351 60.4202 12.4891 60.3944L11.5109 62.1388ZM14.8288 63.6586C14.9377 63.6981 15.0471 63.7368 15.1568 63.7747L15.8093 61.8841C15.7094 61.8497 15.6098 61.8144 15.5106 61.7784L14.8288 63.6586ZM18.5212 64.6497C18.6353 64.67 18.7496 64.6895 18.8642 64.7081L19.185 62.734C19.0806 62.7171 18.9765 62.6993 18.8726 62.6808L18.5212 64.6497ZM22.3261 64.9999C22.384 65.0003 22.442 65.0005 22.5 65.0005V63.0005C22.447 63.0005 22.3941 63.0003 22.3412 62.9999L22.3261 64.9999ZM22.5 65.0005C22.558 65.0005 22.616 65.0003 22.674 64.9999L22.6588 62.9999C22.6059 63.0003 22.553 63.0005 22.5 63.0005V65.0005ZM26.1358 64.7081C26.2504 64.6895 26.3647 64.67 26.4788 64.6497L26.1274 62.6808C26.0235 62.6993 25.9194 62.7171 25.815 62.734L26.1358 64.7081ZM29.8432 63.7747C29.9529 63.7368 30.0623 63.6981 30.1712 63.6586L29.4894 61.7784C29.3902 61.8144 29.2906 61.8497 29.1907 61.8841L29.8432 63.7747ZM33.3371 62.2233C33.3879 62.1953 33.4385 62.1672 33.4891 62.1388L32.5109 60.3944C32.4649 60.4202 32.4187 60.4458 32.3724 60.4713L33.3371 62.2233Z" fill="#5C726B"/>
</g>
<g filter="url(#filter1_d_64_46)">
<path d="M18 9.00073V8.00073H17V9.00073H18ZM27 9.00073H28V8.00073H27V9.00073ZM27 14.0007V15.0007H28V14.0007H27ZM26 14.0007V13.0007H25V14.0007H26ZM26 28.0007H25V29.0007H26V28.0007ZM19 28.0007V29.0007H20V28.0007H19ZM19 14.0007H20V13.0007H19V14.0007ZM18 14.0007H17V15.0007H18V14.0007ZM19 8.00073H18V10.0007H19V8.00073ZM26 8.00073H19V10.0007H26V8.00073ZM27 8.00073H26V10.0007H27V8.00073ZM28 14.0007V9.00073H26V14.0007H28ZM26 15.0007H27V13.0007H26V15.0007ZM27 28.0007V14.0007H25V28.0007H27ZM26 29.0007C29.3137 29.0007 32 31.687 32 35.0007H34C34 30.5825 30.4183 27.0007 26 27.0007V29.0007ZM32 35.0007V71.0007H34V35.0007H32ZM32 71.0007C32 71.553 31.5523 72.0007 31 72.0007V74.0007C32.6569 74.0007 34 72.6576 34 71.0007H32ZM31 72.0007H14V74.0007H31V72.0007ZM14 72.0007C13.4477 72.0007 13 71.553 13 71.0007H11C11 72.6576 12.3431 74.0007 14 74.0007V72.0007ZM13 71.0007V35.0007H11V71.0007H13ZM13 35.0007C13 31.687 15.6863 29.0007 19 29.0007V27.0007C14.5817 27.0007 11 30.5825 11 35.0007H13ZM18 14.0007V28.0007H20V14.0007H18ZM18 15.0007H19V13.0007H18V15.0007ZM17 9.00073V14.0007H19V9.00073H17Z" fill="#1CB788"/>
</g>
<g filter="url(#filter2_d_64_46)">
<path d="M12 40.5299C13.1951 38.8055 15.4634 35.5044 21.7317 37.767C28 40.0298 31.4634 39.1781 33 37.767" stroke="#1CB788" stroke-width="2"/>
</g>
<defs>
<filter id="filter0_f_64_46" x="10.5109" y="59.3944" width="23.9783" height="6.60608" filterUnits="userSpaceOnUse" color-interpolation-filters="sRGB">
<feFlood flood-opacity="0" result="BackgroundImageFix"/>
<feBlend mode="normal" in="SourceGraphic" in2="BackgroundImageFix" result="shape"/>
<feGaussianBlur stdDeviation="0.5" result="effect1_foregroundBlur_64_46"/>
</filter>
<filter id="filter1_d_64_46" x="3" y="0.000732422" width="39" height="82" filterUnits="userSpaceOnUse" color-interpolation-filters="sRGB">
<feFlood flood-opacity="0" result="BackgroundImageFix"/>
<feColorMatrix in="SourceAlpha" type="matrix" values="0 0 0 0 0 0 0 0 0 0 0 0 0 0 0 0 0 0 127 0" result="hardAlpha"/>
<feOffset/>
<feGaussianBlur stdDeviation="4"/>
<feComposite in2="hardAlpha" operator="out"/>
<feColorMatrix type="matrix" values="0 0 0 0 0.109804 0 0 0 0 0.717647 0 0 0 0 0.615686 0 0 0 1 0"/>
<feBlend mode="normal" in2="BackgroundImageFix" result="effect1_dropShadow_64_46"/>
<feBlend mode="normal" in="SourceGraphic" in2="effect1_dropShadow_64_46" result="shape"/>
</filter>
<filter id="filter2_d_64_46" x="3.1781" y="28.0006" width="38.4983" height="21.0989" filterUnits="userSpaceOnUse" color-interpolation-filters="sRGB">
<feFlood flood-opacity="0" result="BackgroundImageFix"/>
<feColorMatrix in="SourceAlpha" type="matrix" values="0 0 0 0 0 0 0 0 0 0 0 0 0 0 0 0 0 0 127 0" result="hardAlpha"/>
<feOffset/>
<feGaussianBlur stdDeviation="4"/>
<feComposite in2="hardAlpha" operator="out"/>
<feColorMatrix type="matrix" values="0 0 0 0 0.109804 0 0 0 0 0.717647 0 0 0 0 0.615686 0 0 0 1 0"/>
<feBlend mode="normal" in2="BackgroundImageFix" result="effect1_dropShadow_64_46"/>
<feBlend mode="normal" in="SourceGraphic" in2="effect1_dropShadow_64_46" result="shape"/>
</filter>
</defs>
</svg>
