<svg width="343" height="455" viewBox="0 0 343 455" fill="none" xmlns="http://www.w3.org/2000/svg">
<path d="M314.5 271.047C314.5 356.927 244.88 426.547 159 426.547C73.1197 426.547 17 361.11 17 275.23C17 218.191 54.5 168.5 81 122.5C104.152 108.818 158.159 137.081 187 137.081C215.841 137.081 248.848 123.399 272 137.081C301.5 168.581 300 215.047 314.5 271.047Z" fill="#1E1E1E"/>
<path fill-rule="evenodd" clip-rule="evenodd" d="M164 148C164 148 167.925 112.681 167 88.5C166.47 74.6487 164.983 64.7185 164 50.8716C163.232 40.059 164 23.5 164 23.5L172 19.5L180.5 25C180.5 25 181.613 38.165 180.5 49.3716C179.073 63.7432 182.228 81.6343 180.5 96C177.706 119.227 180.5 146.5 180.5 146.5L164 148Z" fill="#1E1E1E"/>
<path d="M328 281.5C328 367.38 258.38 437 172.5 437C86.6197 437 17 367.38 17 281.5C17 224.46 44.5 184 71 138C94.1522 124.318 149.659 147.534 178.5 147.534C207.341 147.534 244.848 124.318 268 138C297.5 169.5 313.5 225.5 328 281.5Z" fill="#252626"/>
<g filter="url(#filter0_dd_206_3)">
<path d="M326 282.551C326 367.879 256.828 437.051 171.5 437.051C86.172 437.051 17 367.879 17 282.551C17 161.5 171.5 18 171.5 18C171.5 18 326 157 326 282.551Z" stroke="#1CB788" stroke-width="4"/>
</g>
<path d="M112.56 272.6H102.88L96.32 316.84H94.48L87.76 272.6H76L85.76 325H102.32L112.56 272.6ZM148.869 286.44C148.869 277.08 143.589 272.2 133.589 272.2H131.189C121.189 272.2 115.909 277.08 115.909 286.44V311.16C115.909 320.52 121.269 325.4 131.269 325.4H133.669C143.429 325.4 148.869 320.76 148.869 311.16V286.44ZM137.509 311.16C137.509 317.4 135.989 318.84 132.389 318.84C129.189 318.84 127.269 317.4 127.269 311.16V286.44C127.269 280.12 129.189 278.68 132.389 278.68C135.989 278.68 137.509 280.12 137.509 286.44V311.16ZM188.263 286.84C188.263 278.12 183.463 272.6 172.903 272.6H155.303V325H172.903C183.623 325 188.263 319.64 188.263 310.76V286.84ZM176.903 310.76C176.903 316.92 175.383 318.52 171.943 318.52H166.663V279.16H171.943C175.303 279.16 176.903 280.84 176.903 286.84V310.76ZM230.198 325L217.318 294.12L230.198 272.6H218.918L207.878 295.32V299.08L217.078 325H230.198ZM206.038 272.6H194.678V325H206.038V272.6ZM268.299 325L256.939 272.6H240.619L230.219 325H239.819L241.579 313.32H253.499L255.099 325H268.299ZM252.619 306.84H242.619L246.699 278.6H248.459L252.619 306.84Z" fill="white"/>
<path d="M138.945 361.18C138.245 361.52 137.165 361.74 136.085 361.74C132.825 361.74 130.925 359.64 130.925 356.32C130.925 352.78 133.025 350.76 136.185 350.76C137.305 350.76 138.245 351 138.885 351.32L139.325 349.9C138.865 349.66 137.785 349.3 136.125 349.3C131.945 349.3 129.085 352.14 129.085 356.38C129.085 360.82 131.925 363.22 135.725 363.22C137.365 363.22 138.665 362.9 139.285 362.58L138.945 361.18ZM142.487 363H144.227V357.6C144.627 357.7 145.107 357.72 145.627 357.72C147.327 357.72 148.807 357.22 149.747 356.24C150.427 355.54 150.787 354.58 150.787 353.36C150.787 352.16 150.327 351.18 149.607 350.54C148.807 349.82 147.547 349.42 145.827 349.42C144.427 349.42 143.327 349.54 142.487 349.68V363ZM144.227 350.94C144.527 350.86 145.107 350.8 145.867 350.8C147.767 350.8 149.047 351.66 149.047 353.46C149.047 355.28 147.767 356.32 145.667 356.32C145.087 356.32 144.607 356.28 144.227 356.18V350.94ZM159.412 358.76L160.852 363H162.712L158.112 349.52H156.032L151.432 363H153.232L154.632 358.76H159.412ZM154.992 357.4L156.312 353.5C156.592 352.68 156.792 351.84 156.992 351.06H157.032C157.232 351.84 157.432 352.64 157.732 353.52L159.072 357.4H154.992ZM164.719 356.96V358.24H169.659V356.96H164.719ZM181.832 361.18C181.132 361.52 180.052 361.74 178.972 361.74C175.712 361.74 173.812 359.64 173.812 356.32C173.812 352.78 175.912 350.76 179.072 350.76C180.192 350.76 181.132 351 181.772 351.32L182.212 349.9C181.752 349.66 180.672 349.3 179.012 349.3C174.832 349.3 171.972 352.14 171.972 356.38C171.972 360.82 174.812 363.22 178.612 363.22C180.252 363.22 181.552 362.9 182.172 362.58L181.832 361.18ZM192.334 355.24H187.114V350.98H192.654V349.52H185.354V363H192.954V361.54H187.114V356.68H192.334V355.24ZM198.875 363H200.635V351H204.755V349.52H194.775V351H198.875V363ZM207.256 349.52V362.96C207.836 363.04 208.756 363.12 209.976 363.12C211.836 363.12 213.716 362.7 214.816 361.54C215.456 360.86 215.856 359.92 215.856 358.66C215.856 355.68 213.416 354.46 210.656 354.46C210.196 354.46 209.396 354.5 208.996 354.56V349.52H207.256ZM208.996 355.94C209.436 355.9 209.976 355.86 210.416 355.86C212.336 355.86 214.036 356.66 214.036 358.76C214.036 360.84 212.376 361.76 210.436 361.76C209.836 361.76 209.396 361.74 208.996 361.66V355.94Z" fill="white"/>
<circle cx="267.5" cy="243.5" r="6.5" fill="#353535"/>
<circle cx="134.5" cy="390.5" r="6.5" fill="#353535"/>
<circle cx="195" cy="215" r="9" fill="#353535"/>
<circle cx="88.5" cy="224.5" r="4.5" fill="#353535"/>
<circle cx="92" cy="343" r="3" fill="#353535"/>
<circle cx="96" cy="168" r="3" fill="#353535"/>
<circle cx="253" cy="355" r="3" fill="#353535"/>
<defs>
<filter id="filter0_dd_206_3" x="0" y="0.290405" width="343" height="453.761" filterUnits="userSpaceOnUse" color-interpolation-filters="sRGB">
<feFlood flood-opacity="0" result="BackgroundImageFix"/>
<feColorMatrix in="SourceAlpha" type="matrix" values="0 0 0 0 0 0 0 0 0 0 0 0 0 0 0 0 0 0 127 0" result="hardAlpha"/>
<feOffset/>
<feGaussianBlur stdDeviation="1.5"/>
<feColorMatrix type="matrix" values="0 0 0 0 0.109804 0 0 0 0 0.717647 0 0 0 0 0.615686 0 0 0 0.7 0"/>
<feBlend mode="normal" in2="BackgroundImageFix" result="effect1_dropShadow_206_3"/>
<feColorMatrix in="SourceAlpha" type="matrix" values="0 0 0 0 0 0 0 0 0 0 0 0 0 0 0 0 0 0 127 0" result="hardAlpha"/>
<feOffset/>
<feGaussianBlur stdDeviation="7.5"/>
<feColorMatrix type="matrix" values="0 0 0 0 0.109804 0 0 0 0 0.717647 0 0 0 0 0.533333 0 0 0 1 0"/>
<feBlend mode="normal" in2="effect1_dropShadow_206_3" result="effect2_dropShadow_206_3"/>
<feBlend mode="normal" in="SourceGraphic" in2="effect2_dropShadow_206_3" result="shape"/>
</filter>
</defs>
</svg>
